<svg width="113" height="29" viewBox="0 0 113 29" fill="none" xmlns="http://www.w3.org/2000/svg">
<g clip-path="url(#clip0_1_225)">
<path d="M39.8 24.25C38.35 24.25 37.1333 24.0333 36.15 23.6C35.1667 23.15 34.4083 22.575 33.875 21.875C33.3583 21.1583 33.0833 20.4 33.05 19.6C33.05 19.4667 33.1 19.35 33.2 19.25C33.3167 19.1333 33.45 19.075 33.6 19.075H34.875C35.075 19.075 35.225 19.125 35.325 19.225C35.425 19.325 35.4917 19.4417 35.525 19.575C35.6083 19.975 35.8083 20.375 36.125 20.775C36.4583 21.1583 36.9167 21.4833 37.5 21.75C38.1 22 38.8667 22.125 39.8 22.125C41.2333 22.125 42.2833 21.875 42.95 21.375C43.6333 20.8583 43.975 20.175 43.975 19.325C43.975 18.7417 43.7917 18.275 43.425 17.925C43.075 17.5583 42.5333 17.2333 41.8 16.95C41.0667 16.6667 40.1167 16.3583 38.95 16.025C37.7333 15.675 36.725 15.2917 35.925 14.875C35.125 14.4583 34.525 13.9417 34.125 13.325C33.7417 12.7083 33.55 11.925 33.55 10.975C33.55 10.075 33.7917 9.275 34.275 8.575C34.7583 7.85833 35.45 7.29167 36.35 6.875C37.2667 6.45833 38.375 6.25 39.675 6.25C40.7083 6.25 41.6083 6.39167 42.375 6.675C43.1583 6.94167 43.8083 7.30833 44.325 7.775C44.8417 8.225 45.2333 8.71667 45.5 9.25C45.7667 9.76667 45.9083 10.275 45.925 10.775C45.925 10.8917 45.8833 11.0083 45.8 11.125C45.7167 11.225 45.5833 11.275 45.4 11.275H44.075C43.9583 11.275 43.8333 11.2417 43.7 11.175C43.5833 11.1083 43.4917 10.9833 43.425 10.8C43.325 10.1167 42.9417 9.54167 42.275 9.075C41.6083 8.60833 40.7417 8.375 39.675 8.375C38.5917 8.375 37.7083 8.58333 37.025 9C36.3583 9.41667 36.025 10.0667 36.025 10.95C36.025 11.5167 36.1833 11.9917 36.5 12.375C36.8167 12.7417 37.3167 13.0667 38 13.35C38.6833 13.6333 39.575 13.9333 40.675 14.25C42.0083 14.6167 43.1 15.0083 43.95 15.425C44.8 15.825 45.425 16.3333 45.825 16.95C46.2417 17.55 46.45 18.325 46.45 19.275C46.45 20.325 46.175 21.225 45.625 21.975C45.075 22.7083 44.3 23.275 43.3 23.675C42.3167 24.0583 41.15 24.25 39.8 24.25ZM49.0018 24C48.8351 24 48.6934 23.95 48.5768 23.85C48.4768 23.7333 48.4268 23.5917 48.4268 23.425V6.825C48.4268 6.65833 48.4768 6.525 48.5768 6.425C48.6934 6.30833 48.8351 6.25 49.0018 6.25H50.2518C50.4351 6.25 50.5768 6.30833 50.6768 6.425C50.7768 6.525 50.8268 6.65833 50.8268 6.825V12.65C51.2768 12.0833 51.8268 11.625 52.4768 11.275C53.1268 10.925 53.9518 10.75 54.9518 10.75C56.0351 10.75 56.9518 10.9917 57.7018 11.475C58.4684 11.9417 59.0434 12.6 59.4268 13.45C59.8268 14.2833 60.0268 15.2583 60.0268 16.375V23.425C60.0268 23.5917 59.9768 23.7333 59.8768 23.85C59.7768 23.95 59.6351 24 59.4518 24H58.2018C58.0351 24 57.8934 23.95 57.7768 23.85C57.6768 23.7333 57.6268 23.5917 57.6268 23.425V16.5C57.6268 15.3333 57.3434 14.425 56.7768 13.775C56.2101 13.1083 55.3768 12.775 54.2768 12.775C53.2434 12.775 52.4101 13.1083 51.7768 13.775C51.1434 14.425 50.8268 15.3333 50.8268 16.5V23.425C50.8268 23.5917 50.7768 23.7333 50.6768 23.85C50.5768 23.95 50.4351 24 50.2518 24H49.0018ZM66.2611 24.25C65.4278 24.25 64.6695 24.0833 63.9861 23.75C63.3028 23.4167 62.7528 22.9667 62.3361 22.4C61.9195 21.8333 61.7111 21.1917 61.7111 20.475C61.7111 19.325 62.1778 18.4083 63.1111 17.725C64.0445 17.0417 65.2611 16.5917 66.7611 16.375L70.4861 15.85V15.125C70.4861 14.325 70.2528 13.7 69.7861 13.25C69.3361 12.8 68.5945 12.575 67.5611 12.575C66.8111 12.575 66.2028 12.725 65.7361 13.025C65.2861 13.325 64.9695 13.7083 64.7861 14.175C64.6861 14.425 64.5111 14.55 64.2611 14.55H63.1361C62.9528 14.55 62.8111 14.5 62.7111 14.4C62.6278 14.2833 62.5861 14.15 62.5861 14C62.5861 13.75 62.6778 13.4417 62.8611 13.075C63.0611 12.7083 63.3611 12.35 63.7611 12C64.1611 11.65 64.6695 11.3583 65.2861 11.125C65.9195 10.875 66.6861 10.75 67.5861 10.75C68.5861 10.75 69.4278 10.8833 70.1111 11.15C70.7945 11.4 71.3278 11.7417 71.7111 12.175C72.1111 12.6083 72.3945 13.1 72.5611 13.65C72.7445 14.2 72.8361 14.7583 72.8361 15.325V23.425C72.8361 23.5917 72.7778 23.7333 72.6611 23.85C72.5611 23.95 72.4278 24 72.2611 24H71.1111C70.9278 24 70.7861 23.95 70.6861 23.85C70.5861 23.7333 70.5361 23.5917 70.5361 23.425V22.35C70.3195 22.65 70.0278 22.95 69.6611 23.25C69.2945 23.5333 68.8361 23.775 68.2861 23.975C67.7361 24.1583 67.0611 24.25 66.2611 24.25ZM66.7861 22.375C67.4695 22.375 68.0945 22.2333 68.6611 21.95C69.2278 21.65 69.6695 21.1917 69.9861 20.575C70.3195 19.9583 70.4861 19.1833 70.4861 18.25V17.55L67.5861 17.975C66.4028 18.1417 65.5111 18.425 64.9111 18.825C64.3111 19.2083 64.0111 19.7 64.0111 20.3C64.0111 20.7667 64.1445 21.1583 64.4111 21.475C64.6945 21.775 65.0445 22 65.4611 22.15C65.8945 22.3 66.3361 22.375 66.7861 22.375ZM80.1801 24.25C79.2634 24.25 78.4717 24.0917 77.8051 23.775C77.1384 23.4417 76.5884 23 76.1551 22.45C75.7384 21.8833 75.4217 21.2417 75.2051 20.525C75.0051 19.8083 74.8884 19.05 74.8551 18.25C74.8384 17.9833 74.8301 17.7333 74.8301 17.5C74.8301 17.2667 74.8384 17.0167 74.8551 16.75C74.8884 15.9667 75.0051 15.2167 75.2051 14.5C75.4217 13.7833 75.7384 13.1417 76.1551 12.575C76.5884 12.0083 77.1384 11.5667 77.8051 11.25C78.4717 10.9167 79.2634 10.75 80.1801 10.75C81.1634 10.75 81.9801 10.925 82.6301 11.275C83.2801 11.625 83.8134 12.0583 84.2301 12.575V6.825C84.2301 6.65833 84.2801 6.525 84.3801 6.425C84.4967 6.30833 84.6384 6.25 84.8051 6.25H86.0051C86.1717 6.25 86.3051 6.30833 86.4051 6.425C86.5217 6.525 86.5801 6.65833 86.5801 6.825V23.425C86.5801 23.5917 86.5217 23.7333 86.4051 23.85C86.3051 23.95 86.1717 24 86.0051 24H84.8801C84.6967 24 84.5551 23.95 84.4551 23.85C84.3551 23.7333 84.3051 23.5917 84.3051 23.425V22.375C83.8884 22.9083 83.3467 23.3583 82.6801 23.725C82.0134 24.075 81.1801 24.25 80.1801 24.25ZM80.7051 22.225C81.5384 22.225 82.2051 22.0333 82.7051 21.65C83.2051 21.2667 83.5801 20.7833 83.8301 20.2C84.0801 19.6 84.2134 18.9917 84.2301 18.375C84.2467 18.1083 84.2551 17.7917 84.2551 17.425C84.2551 17.0417 84.2467 16.7167 84.2301 16.45C84.2134 15.8667 84.0717 15.2917 83.8051 14.725C83.5551 14.1583 83.1717 13.6917 82.6551 13.325C82.1551 12.9583 81.5051 12.775 80.7051 12.775C79.8551 12.775 79.1801 12.9667 78.6801 13.35C78.1801 13.7167 77.8217 14.2083 77.6051 14.825C77.3884 15.425 77.2634 16.075 77.2301 16.775C77.2134 17.2583 77.2134 17.7417 77.2301 18.225C77.2634 18.925 77.3884 19.5833 77.6051 20.2C77.8217 20.8 78.1801 21.2917 78.6801 21.675C79.1801 22.0417 79.8551 22.225 80.7051 22.225ZM94.4732 24.25C92.7566 24.25 91.3899 23.725 90.3732 22.675C89.3566 21.6083 88.7982 20.1583 88.6982 18.325C88.6816 18.1083 88.6732 17.8333 88.6732 17.5C88.6732 17.15 88.6816 16.8667 88.6982 16.65C88.7649 15.4667 89.0399 14.4333 89.5232 13.55C90.0066 12.65 90.6649 11.9583 91.4982 11.475C92.3482 10.9917 93.3399 10.75 94.4732 10.75C95.7399 10.75 96.7982 11.0167 97.6482 11.55C98.5149 12.0833 99.1732 12.8417 99.6232 13.825C100.073 14.8083 100.298 15.9583 100.298 17.275V17.7C100.298 17.8833 100.24 18.025 100.123 18.125C100.023 18.225 99.8899 18.275 99.7232 18.275H91.0732C91.0732 18.2917 91.0732 18.325 91.0732 18.375C91.0732 18.425 91.0732 18.4667 91.0732 18.5C91.1066 19.1833 91.2566 19.825 91.5232 20.425C91.7899 21.0083 92.1732 21.4833 92.6732 21.85C93.1732 22.2167 93.7732 22.4 94.4732 22.4C95.0732 22.4 95.5732 22.3083 95.9732 22.125C96.3732 21.9417 96.6982 21.7417 96.9482 21.525C97.1982 21.2917 97.3649 21.1167 97.4482 21C97.5982 20.7833 97.7149 20.6583 97.7982 20.625C97.8816 20.575 98.0149 20.55 98.1982 20.55H99.3982C99.5649 20.55 99.6982 20.6 99.7982 20.7C99.9149 20.7833 99.9649 20.9083 99.9482 21.075C99.9316 21.325 99.7982 21.6333 99.5482 22C99.2982 22.35 98.9399 22.7 98.4732 23.05C98.0066 23.4 97.4399 23.6917 96.7732 23.925C96.1066 24.1417 95.3399 24.25 94.4732 24.25ZM91.0732 16.55H97.9232V16.475C97.9232 15.725 97.7816 15.0583 97.4982 14.475C97.2316 13.8917 96.8399 13.4333 96.3232 13.1C95.8066 12.75 95.1899 12.575 94.4732 12.575C93.7566 12.575 93.1399 12.75 92.6232 13.1C92.1232 13.4333 91.7399 13.8917 91.4732 14.475C91.2066 15.0583 91.0732 15.725 91.0732 16.475V16.55ZM106.788 24.25C105.854 24.25 105.054 24.1333 104.388 23.9C103.721 23.6667 103.179 23.3833 102.763 23.05C102.346 22.7167 102.029 22.3833 101.813 22.05C101.613 21.7167 101.504 21.45 101.488 21.25C101.471 21.0667 101.529 20.925 101.663 20.825C101.796 20.725 101.929 20.675 102.063 20.675H103.163C103.263 20.675 103.338 20.6917 103.388 20.725C103.454 20.7417 103.538 20.8083 103.638 20.925C103.854 21.1583 104.096 21.3917 104.363 21.625C104.629 21.8583 104.954 22.05 105.338 22.2C105.738 22.35 106.229 22.425 106.813 22.425C107.663 22.425 108.363 22.2667 108.913 21.95C109.463 21.6167 109.738 21.1333 109.738 20.5C109.738 20.0833 109.621 19.75 109.388 19.5C109.171 19.25 108.771 19.025 108.188 18.825C107.621 18.625 106.838 18.4167 105.838 18.2C104.838 17.9667 104.046 17.6833 103.463 17.35C102.879 17 102.463 16.5917 102.213 16.125C101.963 15.6417 101.838 15.1 101.838 14.5C101.838 13.8833 102.021 13.2917 102.388 12.725C102.754 12.1417 103.288 11.6667 103.988 11.3C104.704 10.9333 105.596 10.75 106.663 10.75C107.529 10.75 108.271 10.8583 108.888 11.075C109.504 11.2917 110.013 11.5667 110.413 11.9C110.813 12.2167 111.113 12.5333 111.313 12.85C111.513 13.1667 111.621 13.4333 111.638 13.65C111.654 13.8167 111.604 13.9583 111.488 14.075C111.371 14.175 111.238 14.225 111.088 14.225H110.038C109.921 14.225 109.821 14.2 109.738 14.15C109.671 14.1 109.604 14.0417 109.538 13.975C109.371 13.7583 109.171 13.5417 108.938 13.325C108.721 13.1083 108.429 12.9333 108.063 12.8C107.713 12.65 107.246 12.575 106.663 12.575C105.829 12.575 105.204 12.75 104.788 13.1C104.371 13.45 104.163 13.8917 104.163 14.425C104.163 14.7417 104.254 15.025 104.438 15.275C104.621 15.525 104.971 15.75 105.488 15.95C106.004 16.15 106.771 16.3667 107.787 16.6C108.888 16.8167 109.754 17.1083 110.388 17.475C111.021 17.8417 111.471 18.2667 111.738 18.75C112.004 19.2333 112.138 19.7917 112.138 20.425C112.138 21.125 111.929 21.7667 111.513 22.35C111.113 22.9333 110.513 23.4 109.713 23.75C108.929 24.0833 107.954 24.25 106.788 24.25Z" fill="#1F1F1F"/>
<path fill-rule="evenodd" clip-rule="evenodd" d="M21.2826 19.4109L19.207 18.2249L11.7117 22.5043C11.2708 22.7568 10.7292 22.7568 10.2884 22.5043L2.79496 18.2249L0.717397 19.4109C0.568497 19.4961 0.476624 19.6545 0.476624 19.8261C0.476624 19.9976 0.568497 20.156 0.717397 20.2412L10.7609 25.9803C10.9079 26.0643 11.0883 26.0643 11.2353 25.9803L21.2788 20.2412C21.4277 20.156 21.5196 19.9976 21.5196 19.8261C21.5196 19.6545 21.4277 19.4961 21.2788 19.4109H21.2826Z" fill="#258AFF"/>
<path fill-rule="evenodd" clip-rule="evenodd" d="M21.2826 15.1067L19.207 13.9207L11.7117 18.2001C11.2708 18.4526 10.7292 18.4526 10.2884 18.2001L2.79496 13.9207L0.717397 15.1067C0.568497 15.1919 0.476624 15.3503 0.476624 15.5219C0.476624 15.6934 0.568497 15.8518 0.717397 15.937L10.7609 21.6761C10.9079 21.7601 11.0883 21.7601 11.2353 21.6761L21.2788 15.937C21.4277 15.8518 21.5196 15.6934 21.5196 15.5219C21.5196 15.3503 21.4277 15.1919 21.2788 15.1067H21.2826Z" fill="#258AFF"/>
<path fill-rule="evenodd" clip-rule="evenodd" d="M21.2826 10.8024L11.2392 5.06322C11.0922 4.97925 10.9117 4.97925 10.7647 5.06322L0.721242 10.8024C0.572343 10.8875 0.480469 11.0459 0.480469 11.2175C0.480469 11.389 0.572343 11.5474 0.721242 11.6326L10.7647 17.3717C10.9117 17.4557 11.0922 17.4557 11.2392 17.3717L21.2826 11.6326C21.4315 11.5474 21.5234 11.389 21.5234 11.2175C21.5234 11.0459 21.4315 10.8875 21.2826 10.8024Z" fill="#258AFF"/>
</g>
<defs>
<clipPath id="clip0_1_225">
<rect width="113" height="29" fill="white"/>
</clipPath>
</defs>
</svg>
